<svg width="67" height="67" viewBox="0 0 67 67" fill="none" xmlns="http://www.w3.org/2000/svg">
<path fill-rule="evenodd" clip-rule="evenodd" d="M33.4997 5.5835C48.9097 5.5835 61.4163 18.0902 61.4163 33.5002C61.4163 48.9102 48.9097 61.4168 33.4997 61.4168C18.0897 61.4168 5.58301 48.9102 5.58301 33.5002C5.58301 18.0902 18.0897 5.5835 33.4997 5.5835ZM16.8139 43.0365C20.9121 49.1502 27.0649 53.0418 33.9463 53.0418C40.825 53.0418 46.9806 49.153 51.076 43.0365C46.4299 38.6943 40.3056 36.2829 33.9463 36.2918C27.5861 36.2822 21.4606 38.6937 16.8139 43.0365ZM33.4997 30.7085C38.1251 30.7085 41.8747 26.9589 41.8747 22.3335C41.8747 17.7081 38.1251 13.9585 33.4997 13.9585C28.8743 13.9585 25.1247 17.7081 25.1247 22.3335C25.1247 26.9589 28.8743 30.7085 33.4997 30.7085Z" fill="#E3E3FD"/>
</svg>
