<svg width="12" height="12" viewBox="0 0 14 14" fill="none" xmlns="http://www.w3.org/2000/svg">
<path d="M8.83203 12.8203C7.79297 13.1211 6.69922 12.4922 6.39844 11.4531L6.26172 10.9062C6.15234 10.5508 5.96094 10.2227 5.71484 9.94922L4.32031 8.41797C4.07422 8.14453 4.10156 7.73438 4.34766 7.48828C4.62109 7.24219 5.03125 7.26953 5.27734 7.54297L6.69922 9.07422C7.08203 9.48438 7.35547 10.0039 7.51953 10.5508L7.65625 11.0977C7.76562 11.4531 8.12109 11.6445 8.47656 11.5625C8.83203 11.4531 9.02344 11.0977 8.94141 10.7422L8.77734 10.1953C8.61328 9.64844 8.36719 9.12891 8.03906 8.66406C7.90234 8.47266 7.90234 8.19922 8.01172 7.98047C8.12109 7.76172 8.33984 7.625 8.58594 7.625H12.25C12.4688 7.625 12.6875 7.43359 12.6875 7.1875C12.6875 7.02344 12.5508 6.85938 12.3867 6.77734C12.1953 6.72266 12.0312 6.53125 11.9766 6.33984C11.9219 6.12109 11.9766 5.90234 12.1406 5.73828C12.1953 5.65625 12.25 5.57422 12.25 5.4375C12.25 5.24609 12.0859 5.05469 11.8945 5.02734C11.6484 4.97266 11.457 4.80859 11.4023 4.61719C11.3203 4.39844 11.3477 4.15234 11.4844 3.96094C11.5391 3.90625 11.5938 3.79688 11.5938 3.6875C11.5938 3.52344 11.457 3.35938 11.293 3.27734C10.9922 3.16797 10.8281 2.83984 10.9102 2.51172C10.9102 2.45703 10.9375 2.42969 10.9375 2.375C10.9375 2.15625 10.7188 1.9375 10.5 1.9375H7.82031C7.46484 1.9375 7.13672 2.04688 6.86328 2.23828L5.16797 3.35938C4.86719 3.57812 4.45703 3.49609 4.26562 3.16797C4.04688 2.86719 4.12891 2.48438 4.42969 2.26562L6.125 1.14453C6.61719 0.816406 7.21875 0.625 7.82031 0.625H10.5C11.4297 0.625 12.1953 1.39062 12.25 2.32031C12.6328 2.64844 12.9062 3.14062 12.9062 3.6875C12.9062 3.82422 12.8789 3.93359 12.8516 4.04297C13.2891 4.37109 13.5625 4.86328 13.5625 5.4375C13.5625 5.62891 13.5352 5.79297 13.4805 5.95703C13.7812 6.28516 14 6.72266 14 7.1875C14 8.17188 13.207 8.9375 12.25 8.9375H9.70703C9.84375 9.23828 9.95312 9.53906 10.0352 9.83984L10.1992 10.3867C10.5 11.4258 9.89844 12.5195 8.83203 12.8203ZM0.875 10.25C0.382812 10.25 0 9.86719 0 9.375V3.25C0 2.78516 0.382812 2.375 0.875 2.375H2.625C3.08984 2.375 3.5 2.78516 3.5 3.25V9.375C3.5 9.86719 3.08984 10.25 2.625 10.25H0.875Z" fill="#6A6AF4"/>
</svg>
