<svg width="14" height="13" viewBox="0 0 14 13" fill="none" xmlns="http://www.w3.org/2000/svg">
<path d="M8.83203 0.707031C9.89844 1.00781 10.5 2.10156 10.1992 3.14062L10.0352 3.6875C9.95312 3.98828 9.84375 4.28906 9.70703 4.5625H12.25C13.207 4.5625 14 5.35547 14 6.3125C14 6.80469 13.7812 7.24219 13.4805 7.57031C13.5352 7.73438 13.5625 7.89844 13.5625 8.08984C13.5625 8.63672 13.2891 9.15625 12.8516 9.48438C12.8789 9.59375 12.9062 9.70312 12.9062 9.83984C12.9062 10.3867 12.6328 10.8789 12.25 11.207C12.1953 12.1367 11.4297 12.9023 10.5 12.9023H7.82031C7.21875 12.9023 6.61719 12.7109 6.125 12.3828L4.42969 11.2617C4.12891 11.043 4.04688 10.6328 4.26562 10.332C4.45703 10.0312 4.86719 9.94922 5.16797 10.168L6.86328 11.2891C7.13672 11.4805 7.46484 11.5625 7.82031 11.5625H10.5C10.7188 11.5625 10.9375 11.3711 10.9375 11.125C10.9375 11.0977 10.9102 11.043 10.9102 11.0156C10.8281 10.6875 10.9922 10.3594 11.293 10.2227C11.457 10.168 11.5938 10.0039 11.5938 9.8125C11.5938 9.73047 11.5391 9.62109 11.4844 9.56641C11.3477 9.375 11.3203 9.12891 11.4023 8.91016C11.457 8.69141 11.6484 8.55469 11.8945 8.5C12.0859 8.47266 12.25 8.28125 12.25 8.0625C12.25 7.95312 12.1953 7.87109 12.1406 7.78906C11.9766 7.625 11.9219 7.40625 11.9766 7.1875C12.0312 6.96875 12.1953 6.80469 12.3867 6.72266C12.5508 6.66797 12.6875 6.50391 12.6875 6.3125C12.6875 6.09375 12.4688 5.875 12.25 5.875H8.58594C8.33984 5.875 8.12109 5.73828 8.01172 5.51953C7.90234 5.30078 7.90234 5.05469 8.03906 4.86328C8.36719 4.39844 8.61328 3.87891 8.77734 3.33203L8.94141 2.78516C9.02344 2.42969 8.83203 2.07422 8.47656 1.96484C8.12109 1.88281 7.76562 2.07422 7.65625 2.42969L7.51953 2.97656C7.35547 3.52344 7.08203 4.01562 6.69922 4.45312L5.27734 5.98438C5.03125 6.25781 4.62109 6.28516 4.34766 6.03906C4.10156 5.79297 4.07422 5.38281 4.32031 5.10938L5.71484 3.57812C5.96094 3.30469 6.15234 2.97656 6.26172 2.62109L6.39844 2.07422C6.69922 1.00781 7.79297 0.40625 8.83203 0.707031ZM0.875 5H2.625C3.08984 5 3.5 5.41016 3.5 5.875V12C3.5 12.4922 3.08984 12.875 2.625 12.875H0.875C0.382812 12.875 0 12.4922 0 12V5.875C0 5.41016 0.382812 5 0.875 5Z" fill="#6A6AF4"/>
</svg>
