<svg width="16" height="16" viewBox="0 0 16 16" fill="none" xmlns="http://www.w3.org/2000/svg">
<path d="M8 0C12.4062 0 16 3.59375 16 8C16 12.4375 12.4062 16 8 16C6.28125 16 4.71875 15.4688 3.40625 14.5938C2.96875 14.25 2.84375 13.625 3.15625 13.1875C3.46875 12.7188 4.09375 12.625 4.5625 12.9375C5.53125 13.625 6.71875 14 8 14C11.3125 14 14 11.3125 14 8C14 4.6875 11.3125 2 8 2C6.3125 2 4.84375 2.6875 3.75 3.78125L4.71875 4.71875C5.1875 5.21875 4.84375 6 4.1875 6H0.75C0.3125 6 0 5.6875 0 5.25V1.8125C0 1.15625 0.78125 0.8125 1.25 1.28125L2.3125 2.34375C3.78125 0.90625 5.78125 0 7.96875 0H8ZM8 4C8.40625 4 8.75 4.34375 8.75 4.75V7.71875L10.75 9.71875C11.0625 10.0312 11.0625 10.5 10.75 10.7812C10.4688 11.0938 10 11.0938 9.71875 10.7812L7.46875 8.53125C7.3125 8.40625 7.25 8.21875 7.25 8V4.75C7.25 4.34375 7.5625 4 8 4Z" fill="#9090E7"/>
</svg>
