<svg width="12" height="13" viewBox="0 0 12 13" fill="none" xmlns="http://www.w3.org/2000/svg">
<path d="M1.75781 2.25781C2.83594 1.17969 4.33594 0.5 6 0.5C9.30469 0.5 12 3.19531 12 6.5C12 9.82812 9.30469 12.5 6 12.5C4.71094 12.5 3.53906 12.1016 2.55469 11.4453C2.22656 11.1875 2.13281 10.7188 2.36719 10.3906C2.60156 10.0391 3.07031 9.96875 3.42188 10.2031C4.14844 10.7188 5.03906 11 6 11C8.48438 11 10.5 8.98438 10.5 6.5C10.5 4.01562 8.48438 2 6 2C4.75781 2 3.63281 2.51562 2.8125 3.33594L3.53906 4.03906C3.89062 4.41406 3.63281 5 3.14062 5H0.5625C0.234375 5 0 4.76562 0 4.4375V1.85938C0 1.36719 0.585938 1.10938 0.960938 1.46094L1.75781 2.25781ZM6 3.5H5.97656C6.30469 3.5 6.53906 3.75781 6.53906 4.0625V6.28906L8.0625 7.8125C8.29688 8.02344 8.29688 8.375 8.0625 8.58594C7.85156 8.82031 7.5 8.82031 7.28906 8.58594L5.60156 6.89844C5.48438 6.80469 5.4375 6.66406 5.4375 6.5V4.0625C5.4375 3.75781 5.67188 3.5 6 3.5Z" fill="#929292"/>
</svg>
