<svg width="74" height="78" viewBox="0 0 74 78" fill="none" xmlns="http://www.w3.org/2000/svg">
<path d="M6.35134 25.5196C6.71091 24.7733 6.39739 23.8768 5.65107 23.5172C4.90474 23.1576 4.00824 23.4711 3.64866 24.2175L6.35134 25.5196ZM10.0002 15.5834C10.0133 16.4117 10.6955 17.0726 11.5238 17.0594L25.0221 16.8451C25.8504 16.832 26.5113 16.1499 26.4981 15.3215C26.485 14.4932 25.8028 13.8324 24.9745 13.8455L12.976 14.036L12.7856 2.03749C12.7724 1.20917 12.0903 0.548336 11.2619 0.561483C10.4336 0.574631 9.77279 1.25678 9.78593 2.0851L10.0002 15.5834ZM71 40.2578C71 59.0355 55.7777 74.2578 37 74.2578V77.2578C57.4345 77.2578 74 60.6923 74 40.2578H71ZM37 74.2578C18.2223 74.2578 3 59.0355 3 40.2578H0C0 60.6923 16.5655 77.2578 37 77.2578V74.2578ZM37 6.25781C55.7777 6.25781 71 21.4801 71 40.2578H74C74 19.8233 57.4345 3.25781 37 3.25781V6.25781ZM3 40.2578C3 34.9744 4.20405 29.9764 6.35134 25.5196L3.64866 24.2175C1.3099 29.0717 0 34.5139 0 40.2578H3ZM12.5774 16.6033C18.7596 10.2216 27.4156 6.25781 37 6.25781V3.25781C26.5705 3.25781 17.1466 7.57502 10.4226 14.5159L12.5774 16.6033Z" fill="#000091"/>
<path d="M46.8452 22.7578L35.5001 45.0353L51.0943 52.9769" stroke="#E1000F" stroke-width="4" stroke-linecap="round" stroke-linejoin="round"/>
</svg>
