<svg width="14" height="16" viewBox="0 0 14 16" fill="none" xmlns="http://www.w3.org/2000/svg">
<path d="M10 14V15.25C10 15.6875 9.65625 16 9.25 16H0.75C0.3125 16 0 15.6875 0 15.25V3.75C0 3.34375 0.3125 3 0.75 3H3V12.25C3 13.2188 3.78125 14 4.75 14H10ZM10 3.25C10 3.6875 10.3125 4 10.75 4H14V12.25C14 12.6875 13.6562 13 13.25 13H4.75C4.3125 13 4 12.6875 4 12.25V0.75C4 0.34375 4.3125 0 4.75 0H10V3.25ZM13.75 2.28125C13.9062 2.4375 14 2.625 14 2.8125V3H11V0H11.1875C11.375 0 11.5625 0.09375 11.7188 0.25L13.75 2.28125Z" fill="#929292"/>
</svg>
