<svg width="18" height="17" viewBox="0 0 18 17" fill="none" xmlns="http://www.w3.org/2000/svg">
<path d="M9 11.7812L9.8125 12.2188L12.4688 13.625L11.9688 10.5938L11.8125 9.6875L12.4688 9.0625L14.6562 6.875L11.6562 6.4375L10.7188 6.3125L10.3125 5.46875L9 2.71875V2.75V11.7812ZM14.4688 14.8438C14.5312 15.2188 14.375 15.5938 14.0625 15.8125C13.75 16.0625 13.3438 16.0625 13 15.9062L9 13.75L4.96875 15.9062C4.65625 16.0625 4.21875 16.0625 3.9375 15.8125C3.625 15.5938 3.46875 15.2188 3.53125 14.8438L4.28125 10.2812L1.03125 7.0625C0.78125 6.8125 0.65625 6.40625 0.78125 6.0625C0.90625 5.6875 1.21875 5.4375 1.59375 5.375L6.09375 4.71875L8.09375 0.5625C8.25 0.21875 8.59375 0 9 0C9.375 0 9.71875 0.21875 9.90625 0.5625L11.9062 4.71875L16.375 5.375C16.75 5.4375 17.0625 5.6875 17.1875 6.0625C17.3125 6.40625 17.2188 6.8125 16.9375 7.0625L13.6875 10.2812L14.4688 14.8438Z" fill="#929292"/>
</svg>
