<svg width="16" height="16" viewBox="0 0 16 16" fill="none" xmlns="http://www.w3.org/2000/svg">
<path d="M1.5 7H1.25C0.8125 7 0.5 6.6875 0.5 6.25V2.25C0.5 1.96875 0.65625 1.6875 0.9375 1.5625C1.21875 1.46875 1.5625 1.53125 1.78125 1.71875L3.0625 3.03125C5.8125 0.34375 10.2188 0.34375 12.9375 3.0625C15.6562 5.8125 15.6562 10.2188 12.9375 12.9688C10.1875 15.6875 5.78125 15.6875 3.03125 12.9688C2.65625 12.5625 2.65625 11.9375 3.03125 11.5625C3.4375 11.1562 4.0625 11.1562 4.4375 11.5625C6.40625 13.5 9.5625 13.5 11.5312 11.5625C13.4688 9.59375 13.4688 6.4375 11.5312 4.46875C9.59375 2.53125 6.4375 2.53125 4.46875 4.4375L5.78125 5.71875C5.96875 5.9375 6.03125 6.28125 5.9375 6.5625C5.8125 6.84375 5.53125 7 5.25 7H1.5Z" fill="#929292"/>
</svg>
